<svg id="avatar-svg" transform="translate(-40, 0)" width="380" height="380" class="path1" viewBox="0 0 700 700" fill="none" stroke="black" strokewidth="0.8" strokelinecap="round" strokelinejoin="round" xmlns="http://www.w3.org/2000/svg">
        <style>
          @media (prefers-reduced-motion){.path1{animation:none!important;stroke-dasharray:unset!important}}@media print{.path1{animation:none!important;stroke-dasharray:unset!important}}@keyframes grow{0%{stroke-dashoffset:1px;stroke-dasharray:0 1000px;opacity:0;fill-opacity:0}10%{opacity:1;fill-opacity:0}60%{stroke-dasharray:1000px 0;fill-opacity:1;stroke-opacity:0}to{stroke-dasharray:1000px 0;fill-opacity:1;stroke-opacity:0}}.path1 g g path{stroke-dashoffset:1px;stroke-dasharray:1000px 0;animation:grow 7s linear forwards;transform-origin:center;stroke:#a2a0a0;stroke-width:10px;animation-delay:0s}
        </style>
        <g>
          <g>
            <g transform="translate(0, 550)">
    <!-- Generator: Sketch 62 (91390) - https://sketch.com -->
    <title>body/mono/Button Shirt 1</title>
    <desc>Created with Sketch.</desc>
    <g id="body/mono/Button-Shirt-1" stroke="none" stroke-width="1" fill="none" fill-rule="evenodd">
        <path d="M77.6647554,714.4465 C208.309615,734.2905 341.324425,735.2885 473.054888,728.0825 C525.188791,724.1795 577.482489,723.4765 629.574447,728.4665 C660.355831,730.7555 795.316137,741.0715 806.342946,713.5025 C799.402878,566.6975 785.346967,418.6425 742.227462,277.4525 C724.494285,227.3195 709.263785,185.709745 674.653329,144.223745 C663.745368,132.896745 640.22137,109.140591 626.742717,101.392591 C615.064747,94.6815914 610.183858,97.0757451 603.478488,85.7397451 C596.81519,73.2170362 591.900471,52.3030894 582.439231,43.4666933 C572.806048,34.4697084 558.529794,37.6886415 540.834945,40.5865037 C544.08577,-3.34413002 523.807569,-14.5325 495.871523,-22.8865 C446.766721,-41.6275 398.27065,-32.2125683 385.911556,27.5644317 C362.995491,27.5644317 350.123147,37.4260476 336.207129,46.9016348 C330.518487,50.7751005 334.47572,60.6437524 327.6809,63.6881932 C315.109311,68.1641887 292.893508,67.067829 280.789015,72.576458 C225.745415,97.6262286 176.719965,133.951931 144.523708,187.0035 C72.3436037,300.2695 22.7614161,538.8655 31.3413737,673.1115 C27.5822117,679.0065 32.7805215,687.4595 34.101821,693.7985 C35.7696744,699.3125 41.1707233,702.9805 46.8074688,702.3535 C54.6733454,710.8125 66.8396873,712.6955 77.6647554,714.4465 Z" id="ðŸŽ¨-Background" fill="#FFFFFF"/>
        <path d="M618.424,98.0718 C617.622,97.6248 618.328,96.4788 619.134,96.8578 C657.879,115.0338 687.602,146.9228 708.516,183.7678 C730.172083,221.919145 742.514934,265.235288 753.156107,307.571995 L753.54,309.1018 C764.887,354.3918 774.535,400.1498 783.221,446.0198 C792.018,492.4708 799.079,539.2098 804.759,586.1418 C807.569,609.3468 810.074,632.5928 812.028,655.8858 C813.004,667.5258 813.891,679.1748 814.688,690.8288 C815.0064,695.4896 815.30624,700.1504 815.563456,704.815296 L815.748,708.3148 C815.907,711.4888 816.284,714.6708 815.5,717.8018 C814.823,720.5008 813.394,722.9448 812.137,725.4228 C809.651,730.3208 802.836,729.5138 800.157,725.4228 L799.379037,724.231103 C797.6025,721.485394 796.126375,718.933675 795.569,715.5168 C795.03,712.2078 795.01,708.7408 794.768,705.3988 C794.323,699.2498 793.944,693.0948 793.512,686.9438 C792.605,673.9958 791.586,661.0558 790.458,648.1258 C788.227,622.5998 785.834,597.0968 782.895,571.6408 C777.673,526.4008 771.12,481.2808 763.395,436.4008 C755.847267,392.5586 746.305429,349.161196 736.351158,305.818363 L735.32,301.3348 C717.891,225.6608 691.029,138.5128 618.424,98.0718 Z M205.7366,394.3942 C206.0216,393.6372 207.2476,393.4632 207.4546,394.3942 C210.0646,406.1452 210.3226,418.2482 210.7216,430.2792 C211.1146,442.1472 211.0986,454.0692 210.9256,465.9442 C210.2876,509.5872 209.0896,553.1932 208.0536,596.8292 C207.5356,618.6562 207.0496,640.4862 206.6766,662.3162 C206.5356,670.50395 206.4171,678.691137 206.318569,686.879028 L206.198047,697.677909 C206.138115,702.45236 206.012754,707.168431 205.4306,711.9382 C205.0466,715.0752 204.2286,718.0672 202.4966,720.7562 C201.267424,722.664906 199.515617,723.633764 197.808102,724.930842 L197.4886,725.1782 C195.3106,726.8992 193.0166,726.9112 190.8596,725.1782 L190.233257,724.6826 C188.172798,723.071307 186.392055,721.812382 185.0766,719.2642 C183.2466,715.7212 182.9536,711.8722 182.6426,707.9682 C182.1706,702.0482 182.4836,696.0412 182.5446,690.1042 C182.6666,678.1942 182.8316,666.2862 183.0406,654.3772 C183.8076,610.7062 185.3236,567.0272 188.0866,523.4342 C189.388247,502.900553 191.153174,482.30047 193.520611,461.849881 L193.9716,458.0172 C194.6896,452.0002 195.3446,445.8762 196.0826,439.7322 C185.0656,431.9832 175.3816,422.5812 167.1236,411.9152 C166.5156,411.1302 167.5166,410.0292 168.2506,410.7892 C176.6886,419.5262 186.3636,426.4912 197.0746,431.9682 C198.8296,419.1072 201.2426,406.3152 205.7366,394.3942 Z M389.7891,5.1082 C389.9401,4.9912 390.1761,4.9402 390.3201,5.1082 C392.6881,7.86892727 392.207894,12.0899594 392.284211,15.5884044 L392.2931,15.9142 C392.4631,21.0292 392.4951,26.1282 392.4781,31.2462 L392.4251,47.5372 L392.4251,47.5372 C392.417989,49.7772 392.23626,52.1088543 392.35118,54.3621986 L392.4111,55.2342 L392.4111,55.2342 C393.6551,56.5082 394.2331,58.3492 393.8111,60.1982 C393.7351,62.5702 392.4951,64.5492 390.6861,65.7932 L394.563225,71.2937 L394.563225,71.2937 L398.4441,76.7912 C406.4431,88.1362 414.5301,99.3802 422.9581,110.4132 C431.5521,121.6622 440.7201,132.4872 450.3141,142.8952 C455.0011,147.9812 459.7681,152.9962 464.6461,157.8992 C466.62835,159.89195 468.6601,161.8352 470.669209,163.800247 L472.6681,165.7752 C473.8491,166.9562 475.3351,168.1242 476.1191,169.6212 C476.5801,170.5042 476.6851,172.6802 476.8501,173.0402 C478.3301,176.2932 475.8051,181.4802 471.6091,179.8572 L471.799502,179.730508 C472.563459,179.199181 472.073928,179.191476 470.3301,179.7082 C469.2301,179.704564 468.198695,179.45134 467.235134,178.950033 L466.9481,178.7922 C465.591177,178.102662 464.379958,176.768105 463.277476,175.700903 L463.0041,175.4402 C460.4831,173.0782 458.0801,170.5732 455.6641,168.1042 C450.6211,162.9532 445.6921,157.6922 440.9201,152.2902 C431.4001,141.5122 422.3751,130.2972 413.8281,118.7342 C405.1221,106.9572 397.0301,94.5752 390.0711,81.6852 C387.4301,76.7932 385.0091,71.8072 382.6881,66.7632 C378.1701,65.3132 377.1211,60.5082 377.4361,55.0952 C375.7691,51.2132 374.2671,47.2512 373.3791,43.2032 C373.2581,42.6482 373.9711,42.1252 374.3981,42.6102 C375.8431,44.2522 377.1811,46.0002 378.4671,47.7932 C379.2431,43.9982 380.2251,40.5052 380.6871,38.2782 L382.6901,28.4502 L382.6901,28.4502 C371.4031,27.8622 359.0351,32.4992 351.2541,40.6172 C350.8361,42.7312 349.2091,44.2442 347.6231,46.2202 C345.8111,48.4792 344.2301,51.0142 343.0511,53.6652 C340.4361,59.5412 341.9121,68.2002 336.8371,72.5112 C336.3081,72.9602 335.7171,73.2722 335.1071,73.4652 C337.515271,85.2729143 336.422414,98.2838122 336.369917,110.262952 L336.3681,111.3172 C336.3801,124.7242 335.9321,138.1422 335.4141,151.5382 L334.8871,164.796176 C334.20422,182.478 333.7607,200.1684 335.4791,217.7532 C343.3241,210.8052 351.4361,204.1742 359.8271,197.8572 C365.344433,193.702533 370.972384,189.69562 376.702524,185.839269 L381.358462,182.728253 C386.93766,178.986971 392.652404,175.13733 398.7611,172.4582 C406.7511,168.9552 414.3491,170.1592 422.0631,173.7522 C429.7451,177.3312 437.1981,181.4882 444.7331,185.3672 C452.3971,189.3112 460.0771,193.2222 467.7521,197.1432 C472.8361,199.7412 480.2861,202.0862 484.0151,206.8682 C484.2531,205.8102 484.5301,204.7552 484.8541,203.7042 C484.4841,202.1012 484.6271,200.3692 485.5261,198.7182 C498.0561,175.6952 509.6491,152.1222 521.1611,128.5782 C526.9881,116.6632 532.5281,104.6072 538.3661,92.6992 L544.041359,81.1014222 C544.989656,79.1694222 545.940767,77.2388667 546.8971,75.3112 C548.3291,72.4252 549.8201,69.5672 551.2681,66.6882 C551.8801,65.4719143 552.64712,64.2637102 553.242957,63.0358793 L553.5251,62.4202 C553.538732,62.3880684 554.913779,58.064065 553.851636,58.4762247 L553.7601,58.5202 C553.2181,58.8272 552.7841,58.1452 553.1351,57.7102 C554.6371,55.8532 556.7291,57.4982 557.5861,59.2172 C559.947544,63.9479407 555.620756,71.3740114 553.956402,75.9039207 L553.8651,76.1572 C548.7001,90.7762 542.8521,105.1212 536.8601,119.4162 C525.3711,146.8232 513.0291,173.8092 500.7141,200.8422 L500.5681,201.3072 L500.5681,201.3072 C503.1941,199.2942 505.9981,197.4672 508.3991,195.6892 C514.4561,191.2022 520.6901,186.9362 526.9141,182.6842 C538.328162,174.886075 550.0516,167.60211 561.969056,160.605712 L564.3551,159.2102 C570.3081,155.7422 576.2051,152.9302 583.2711,153.9712 C589.835733,154.938833 595.938751,158.464976 601.869208,161.329375 L602.4821,161.6232 L620.8071,170.3352 C618.8481,162.5232 616.7271,154.7492 614.5141,147.0042 C610.1981,131.8972 605.4491,116.9172 600.2991,102.0712 C595.4891,88.2002 590.289365,74.4809551 584.789569,60.8702299 L583.133438,56.7853395 C580.891066,51.1813582 578.661314,45.0705393 572.2521,43.3452 C565.8471,41.6202 558.5001,44.1782 552.6461,40.5272 C552.1141,40.1952 552.1801,39.3182 552.8251,39.1562 L556.437306,38.245786 C563.219575,36.5586464 571.170544,34.8614444 577.5841,36.5022 C584.5631,38.2902 590.3371,44.1472 593.7231,50.2362 C597.48795,57.0097 600.141822,64.590035 602.999073,71.8128897 L603.4521,72.9502 C606.7311,81.1242 609.8851,89.3472 612.9031,97.6222 C618.9371,114.1622 624.4301,130.9012 629.4021,147.7912 C631.7981,155.9312 634.0711,164.1102 636.2561,172.3092 C636.8841,174.6672 637.9201,177.5262 638.7701,180.5082 C639.7441,181.4582 640.6661,182.5182 641.5311,183.7272 C642.9661,185.7332 641.9361,188.0852 640.1521,189.2862 C640.0831,191.3382 639.6271,193.2682 638.5371,194.9222 C634.2821,201.3812 623.0331,199.7172 623.4901,191.0342 C623.5591,189.7052 624.0771,188.4362 624.8611,187.3642 L624.8391,187.1902 L624.8391,187.1902 L624.7501,186.8722 L624.7501,186.8722 C622.7971,185.9362 620.8361,184.8932 618.7691,183.8722 L599.5371,174.3692 L599.5371,174.3692 C593.9671,171.6162 587.7931,167.3632 581.5991,166.3142 C575.824632,165.336455 569.732141,169.638653 564.770094,172.234403 L564.4481,172.4012 C552.4531,178.5492 540.5471,184.9012 528.6881,191.3052 C522.8991,194.4322 517.1851,197.6892 511.4181,200.8532 C506.5961,203.4992 501.3921,207.2972 495.9721,208.7902 C493.6571,210.5902 490.9071,210.3492 488.6971,208.9882 C489.7071,215.2432 489.6451,221.6622 489.9551,228.0572 C490.371989,236.606533 490.435693,245.17957 490.573229,253.740492 L490.6291,256.9502 C490.9931,275.8762 491.1881,294.8072 491.2601,313.7372 C491.5161,381.1452 490.7711,448.5732 490.5971,515.9812 C490.5091,549.8492 489.8381,583.7462 488.9581,617.6012 C488.584946,631.946892 487.805118,646.275401 486.962724,660.599449 L486.4991,668.4122 C485.5181,684.8972 484.9391,701.5642 481.8871,717.8272 C481.4891,719.9482 477.8991,720.0022 477.5471,717.8272 C474.73835,700.40095 474.582139,682.592376 474.042121,664.96178 L473.9281,661.4382 C473.2791,642.5082 472.9711,623.5902 473.0371,604.6502 C473.2771,537.2152 475.0301,469.8222 476.4641,402.4062 C477.1851,368.5342 477.6701,334.6472 478.7901,300.7862 C479.3501,283.8432 479.9841,266.9112 480.7361,249.9752 C481.0721,242.41345 481.395084,234.859356 481.897321,227.308899 L482.1241,224.0732 C482.2801,221.9622 482.4061,219.8772 482.5591,217.8112 C475.7361,220.3032 469.4961,215.6892 463.3581,212.5322 C456.2841,208.8932 449.2131,205.2482 442.1361,201.6162 L435.05347,197.990496 L435.05347,197.990496 L420.8791,190.7582 C414.4971,187.5012 409.5801,184.2602 402.7731,188.0802 C378.2501,201.8382 355.7151,220.1442 335.2931,239.3532 C331.3771,243.0372 323.1021,242.0472 322.1101,235.8732 C317.872778,209.497658 320.449862,182.740374 322.613219,156.284848 L323.410711,146.462918 C324.3771,134.731783 325.4296,123.000533 326.8321,111.3172 C327.4593,106.0908 328.08394,100.8676 328.77514,95.651184 L329.3071,91.7402 C330.1711,85.5572 330.7351,79.4112 332.5771,73.4812 C331.9961,73.2932 331.4371,72.9852 330.9371,72.5112 C325.3991,67.2572 328.0691,58.1402 330.5961,51.8902 C333.0911,45.7212 336.8961,40.3372 341.6611,35.7032 C342.7001,34.6912 344.1651,34.0402 345.6371,34.0062 C357.1901,26.3522 369.8641,22.5322 383.0551,26.7102 C383.4256,24.9387 383.803412,23.1700125 384.201194,21.405825 L384.6061,19.6432 C385.6321,15.2662 386.0131,8.0362 389.7891,5.1082 Z M508.1948,696.3269 C511.7798,695.3409 515.7048,696.3799 518.3318,699.0069 C520.9578,701.6339 521.9978,705.5579 521.0098,709.1429 C520.5158,710.9079 519.6228,712.4399 518.3318,713.7409 C517.124657,714.939686 515.716611,715.795298 514.108463,716.307737 L513.7338,716.4199 L513.1478,716.6639 C511.3508,717.1469 509.5528,717.1469 507.7568,716.6639 C506.0388,716.1819 504.5478,715.3129 503.2818,714.0569 C502.0248,712.7909 501.1558,711.2999 500.6738,709.5809 C500.1908,707.7839 500.1908,705.9869 500.6738,704.1899 L500.9188,703.6039 L500.9188,703.6039 C501.4128,701.8389 502.3058,700.3059 503.5968,699.0069 C504.8968,697.7159 506.4298,696.8219 508.1948,696.3269 Z M721.0641,339.0883 C721.6531,338.4123 722.6081,339.2783 722.2421,339.9973 C716.6581,350.9443 710.4341,361.8133 704.3171,372.4823 C704.8071,375.4393 705.2931,378.3723 705.8521,381.2313 C708.2351,393.4173 711.1541,405.3833 713.0571,417.6853 C719.8971,461.9043 723.4481,506.6033 726.4951,551.2193 C729.5511,595.9953 729.9421,640.7913 730.4011,685.6553 C730.4411,689.5433 727.4501,694.0623 723.4421,694.7953 C721.6071,695.1303 720.2341,695.0653 718.4031,694.7953 C714.2321,694.1813 711.6231,689.4033 711.4441,685.6553 C710.2481,660.5813 708.6391,635.5393 706.7751,610.5043 C703.4711,566.1203 701.4521,521.6203 698.7831,477.1903 L697.84312,461.661916 C696.83436,444.835968 695.911629,427.998359 695.6111,411.1473 C695.4111,399.9833 696.0081,388.8223 695.6411,377.6713 C695.3021,367.3763 694.2581,356.1823 696.5281,346.0673 C696.6121,345.6883 697.2111,345.5923 697.3841,345.9553 C699.7441,350.9233 701.2391,356.3233 702.3911,361.8353 C708.4731,354.1433 714.6671,346.4343 721.0641,339.0883 Z M322.6675,67.1404566 C323.5215,67.0792 323.4875,68.3622 322.6675,68.4572 C310.731528,69.8416444 299.201053,74.6988127 287.930881,78.8272193 L286.9655,79.1792 C275.5795,83.3102 264.4785,88.1142 253.7955,93.8402 C232.9085,105.0362 213.7285,119.4722 196.7705,135.9982 C129.0655,201.9702 98.2105,297.1042 75.6015,386.5062 C63.0395,436.1772 54.1065,486.6882 48.3165,537.5862 C45.4535,562.7582 43.4295,588.0262 42.2495,613.3332 C41.6455,626.3032 41.2645,639.2852 41.1055,652.2682 C41.0235,658.9182 40.9995,665.5702 41.0075,672.2202 C41.0115,675.2682 41.5555,679.1052 40.7405,682.0642 C39.9845,684.8052 37.8525,687.2192 36.2755,689.5032 C34.4065,692.2132 31.0475,692.0702 29.1525,689.5032 L28.4537016,688.568935 C26.4326736,685.888196 24.4551897,683.324924 24.1665,679.8212 C23.8575,676.0652 24.0755,672.1932 24.0615,668.4202 C24.0295,660.8192 24.1235,653.2172 24.2755,645.6182 C24.5685,631.0522 25.1425,616.4922 25.9955,601.9482 C27.7275,572.4332 30.5785,542.9782 34.6605,513.6952 C41.9165,461.6452 52.7925,410.0922 67.0385,359.5082 C80.4785,311.7892 96.4005,264.2112 119.0825,220.0092 C140.1425,178.9692 167.7705,140.7902 204.2265,112.1082 C221.1795,98.7702 239.6345,87.6542 259.5315,79.2832 C269.5665,75.0612 280.1045,71.6142 290.8215,69.6492 C301.4195,67.7062 311.9715,67.9772 322.6675,67.1404566 Z M510.2494,611.9806 C512.1424,611.9666 514.2534,612.3826 515.8774,613.4296 L518.0474,615.1066 L518.0474,615.1066 C518.6354,615.8616 519.2204,616.6196 519.8034,617.3796 C521.1604,619.1476 521.3404,622.0086 521.0574,624.1156 C520.9934,625.5226 520.5754,626.8306 519.8034,628.0436 L518.1514,630.1826 L518.1514,630.1826 C516.5634,631.4776 515.2394,632.4016 513.3164,633.0246 C512.3111,633.3495 511.34306,633.41763 510.378017,633.368229 L510.0564,633.3476 L510.2494,633.3736 L509.9114,633.3356 L509.9114,633.3356 C509.5974,633.3086 509.2824,633.2746 508.9664,633.2316 C508.7514,633.2046 508.5354,633.1886 508.3204,633.1586 C508.1134,633.1416 507.9134,633.1336 507.7044,633.1526 C505.2604,633.382704 502.8034,631.9966 501.0684,630.4046 C499.5054,628.9696 498.1024,625.9266 498.3204,623.7696 L498.413386,622.868132 C498.578162,621.347365 498.7131,620.74905 499.3574,619.2216 C499.9834,617.7356 500.8584,616.4246 502.0494,615.3166 C504.3294,613.1956 507.1204,612.0026 510.2494,611.9806 Z M502.6841,500.6974 C505.9281,497.1624 511.4991,496.9024 515.5221,499.0404 C516.5021,499.5624 517.4021,500.3994 518.2661,501.0974 C520.4431,502.8574 521.2981,506.0324 521.4181,508.7074 C521.5371,511.3524 520.1421,514.4934 518.2661,516.3194 L517.8111,516.7604 L517.8111,516.7604 C516.6901,517.8504 515.0841,518.7984 513.5161,519.0864 C510.9871,519.5514 508.8631,519.5374 506.5081,518.5434 C504.484521,517.689821 502.740964,516.317483 501.554618,514.455295 L501.3621,514.1404 C501.280767,514.009733 501.203878,513.876844 501.13173,513.741141 L501.0271,513.5354 C498.7731,509.2014 499.3791,504.2954 502.6841,500.6974 Z M504.3643,388.8279 C505.8273,388.3689 507.2893,388.3039 508.7523,388.6319 C509.7453,388.6339 510.6713,388.8849 511.5293,389.3819 C512.4613,389.6429 513.2713,390.1149 513.9573,390.7979 C514.7833,391.2859 515.4423,391.9439 515.9313,392.7709 C516.9043,393.8339 517.5603,395.0809 517.9013,396.5129 L518.2933,399.4379 L517.9013,402.3639 L516.7913,404.9929 L516.7913,404.9929 C516.4863,405.3909 516.1793,405.7889 515.8693,406.1849 C515.3793,407.0139 514.7193,407.6749 513.8903,408.1649 C513.3513,408.7009 512.7333,409.1019 512.0423,409.3799 C509.5923,411.1359 506.3283,411.7089 503.4253,410.9089 C501.7013,410.4269 500.2043,409.5539 498.9353,408.2929 C497.6743,407.0229 496.8013,405.5259 496.3193,403.8029 L496.120462,402.426754 C495.864317,400.580875 495.823482,399.558445 496.3463,397.2119 C496.5753,396.1799 497.2403,394.7249 497.5883,394.1119 C499.0763,391.4959 501.5073,389.7029 504.3643,388.8279 Z M631.3969,308.3458 C635.5977,308.3162 639.7985,308.32436 643.998788,308.370792 L647.1489,308.4128 C652.4239,308.4958 656.9419,307.9518 661.0889,311.6118 C664.0989,314.2678 662.7729,318.7238 659.9159,320.7248 C655.5869,323.7548 650.1569,322.2308 645.1809,321.8968 C639.9329,321.5448 634.6809,321.2528 629.4269,321.0168 C619.2539,320.5618 609.0769,320.2718 598.8939,320.2268 C588.7329,320.1838 578.5569,320.2798 568.3969,320.4438 C558.0589,320.6118 547.2949,321.5748 537.0149,320.5048 C535.6029,320.3578 535.2849,318.5008 536.6789,318.0178 C546.3659,314.6668 557.2629,313.5808 567.4149,312.2998 C577.8859,310.9768 588.3569,310.0408 598.8939,309.4338 C609.7169,308.8128 620.5559,308.4218 631.3969,308.3458 Z M504.345049,275.431835 L504.6917,275.4386 C506.540633,275.443267 508.271096,275.878262 509.884713,276.743587 L510.2287,276.9356 L512.4487,278.6496 C513.8077,280.0196 514.7487,281.6326 515.2687,283.4906 L515.6607,286.4066 L515.6607,286.4066 C515.7187,287.9166 515.4027,289.3246 514.7167,290.6326 C514.2737,291.9926 513.5177,293.1686 512.4487,294.1626 C511.4547,295.2316 510.2777,295.9876 508.9187,296.4306 C507.711315,297.063831 506.418724,297.381795 505.038565,297.382134 L504.6917,297.3756 C502.7127,297.3686 500.8667,296.8696 499.1567,295.8776 L496.9357,294.1626 L496.9357,294.1626 C495.5767,292.7936 494.6357,291.1806 494.1157,289.3226 L493.7227,286.4066 L493.7227,286.4066 C493.6667,284.8966 493.9807,283.4866 494.6687,282.1806 C495.1107,280.8206 495.8667,279.6436 496.9357,278.6496 C497.9297,277.5806 499.1057,276.8246 500.4667,276.3826 C501.673162,275.748446 502.965682,275.431263 504.345049,275.431835 L504.345049,275.431835 Z M536.8638,17.7614 C539.2268,14.3384 543.5098,17.3824 542.8968,20.1344 C543.0588,27.8634 543.4538,35.3644 545.2128,42.9354 C546.0178,46.4014 547.0728,49.8714 548.6998,53.0464 L549.383143,54.3833659 C551.489237,58.5440331 553.124069,62.4679769 550.2878,67.0324 C548.9508,69.1844 546.5348,70.8004 543.9158,70.6874 C532.3008,70.1864 530.7048,54.0194 529.9988,44.9944 C529.2708,35.6994 531.5348,25.4844 536.8638,17.7614 Z" id="ðŸ–-Ink" fill="#000000"/>
    </g>
</g><g transform="translate(200, 50)">
    <!-- Generator: Sketch 62 (91390) - https://sketch.com -->
    <title>head/mono/Short 4</title>
    <desc>Created with Sketch.</desc>
    <g id="head/mono/Short-4" stroke="none" stroke-width="1" fill="none" fill-rule="evenodd">
        <path d="M430.4052,143.8453 C430.0692,131.8873 412.6762,126.9223 407.6512,138.7653 C407.3392,139.0823 407.0002,139.3873 406.6822,139.6603 C408.2552,138.3113 404.9662,140.5433 404.4312,140.8193 C403.9732,141.0553 403.5052,141.2683 403.0382,141.4883 C399.8062,111.1943 388.8342,78.5363 360.4822,63.3303 C320.9382,44.1543 275.2452,40.4113 231.8622,42.3163 C209.8852,43.6203 184.5072,47.1343 164.9822,36.0163 C158.8982,32.5523 154.0212,27.0993 147.1462,24.9583 C125.4432,19.0873 115.5992,41.3733 118.5552,59.7003 C109.2982,59.7733 100.1152,64.8983 96.1202,73.3363 C93.7742,78.3303 93.8152,83.7193 91.7922,88.7313 C85.5852,101.4413 76.7042,110.5773 81.7252,125.9873 C72.8942,136.0363 77.9292,151.2493 85.0552,160.8703 C88.5742,165.8743 92.7652,170.6783 95.3432,176.2793 C97.8452,181.6423 94.0682,188.0023 91.9662,193.0863 C76.4262,229.9353 77.3142,270.5163 85.6762,308.9523 C68.8962,316.2333 63.8602,338.9933 74.8022,353.3243 C78.5672,358.3903 83.1602,360.2703 88.3692,363.3873 C94.9612,367.0153 89.5772,381.5473 91.6882,388.5653 C94.5562,405.6983 110.1562,416.2493 125.5812,405.1233 C135.3692,403.6423 143.2642,432.1213 150.3722,439.2693 C154.7512,445.0293 159.6132,450.2013 164.8992,454.9743 C180.6492,495.4993 261.3552,516.0493 301.2572,513.7033 C343.0422,509.3283 371.2312,473.8423 394.7032,442.3483 C406.7562,425.5673 414.5952,406.7853 417.4462,386.3003 C420.3102,365.7123 419.0572,345.0873 417.1212,324.4743 C413.0542,280.6783 406.6382,217.5823 402.4952,173.3133 C417.4672,172.0803 430.8592,159.3333 430.4052,143.8453 L430.4052,143.8453 Z" id="ðŸŽ¨-Background" fill="#FFFFFF"/>
        <path d="M104.0175,117.5142 C104.0035,117.5762 104.0245,117.6232 104.0385,117.6892 C104.0415,117.6702 104.0445,117.6602 104.0495,117.6372 C104.0375,117.5872 104.0285,117.5542 104.0175,117.5142" id="Fill-4" fill="#4F66AF"/>
        <path d="M104.0136,118.1509 C103.9586,118.0929 103.8806,118.0499 103.8026,117.9919 C103.8006,117.9939 103.7996,117.9959 103.7986,117.9979 C103.8716,118.0459 103.9416,118.1009 104.0136,118.1509" id="Fill-6" fill="#4F66AF"/>
        <path d="M428.0238,149.5043 C432.9418,145.4183 440.6888,149.1803 439.0228,155.9073 C437.2098,163.2333 429.3578,168.2393 422.8758,171.2493 C416.2038,174.3463 409.7048,174.9433 402.4258,174.6053 L402.3358,174.5853 L402.3358,174.5853 C404.3568,182.6883 405.5028,191.1113 407.0488,199.2633 C409.0108,209.6053 410.9408,219.9523 412.8418,230.3043 C414.6808,240.3103 417.0058,250.3293 418.4188,260.3853 C419.8438,270.5363 421.2118,280.6943 422.6118,290.8483 C424.948164,307.807391 426.834114,324.844168 428.822619,341.851944 L429.770369,349.90228 C431.761701,366.942155 433.365055,384.002573 429.5908,400.9593 C426.0538,416.8513 418.0858,431.6753 408.8438,444.9413 C399.7928,457.9313 389.6818,470.4213 378.5828,481.7203 C357.1738,503.5113 330.7738,520.9643 299.8178,524.2013 C286.4888,525.5953 272.2528,524.0443 259.7218,519.1993 L258.889738,518.874237 C246.205085,513.866032 230.671241,505.291031 227.3698,491.2193 C225.3428,482.5873 234.2378,475.8483 242.0368,479.9443 C245.650244,481.842633 248.367254,484.011235 251.333521,486.730632 L251.8598,487.2163 C254.2838,489.4673 255.2168,490.1593 258.0138,491.9203 C263.7508,495.5293 268.0508,497.2373 274.5668,498.8773 C286.5808,501.8993 299.5468,501.4213 311.7428,497.8473 C337.6368,490.2593 357.7248,470.4593 374.9338,450.6063 C384.2778,439.8253 393.1468,428.5163 399.9868,415.9513 C407.1638,402.7683 410.4768,388.9273 410.2778,373.9273 C410.0528,357.0023 407.7138,340.0113 406.1788,323.1663 C404.6148,305.9933 403.1688,288.8263 401.8948,271.6293 C400.701388,255.502241 400.586011,239.302546 400.168884,223.125256 L400.0868,220.0923 C399.8418,211.5043 399.6718,202.9133 399.4768,194.3233 C399.2838,185.7583 398.6058,177.0843 399.4878,168.5553 C399.5508,167.9343 400.3878,167.7773 400.5918,168.4053 C401.1118,170.0033 401.5668,171.6263 401.9968,173.2583 C402.0628,173.2083 402.1368,173.1633 402.2268,173.1323 C407.9308,171.1723 413.1838,167.2593 417.4638,163.0393 C421.5478,159.0123 423.6808,153.1133 428.0238,149.5043 Z M115.947,29.5068 C119.53,14.7908 135.654,11.5038 147.577,18.5908 C153.312,21.9988 157.904,26.9138 163.261,30.8198 C168.587,34.7038 174.473,37.8228 180.684,40.0258 C193.023,44.4018 206.039,45.9928 219.08,46.0498 C250.82,46.1888 281.911,37.2688 313.698,38.2638 C338.294,39.0338 364.4,46.3028 382.241,64.0828 C391.852,73.6608 398.045,85.9748 401.367,99.0478 C402.919615,105.157646 404.07687,111.415753 404.989777,117.659308 L405.213,119.2198 C405.724,122.8688 406.544,126.7318 406.62,130.4198 C406.689,133.7318 405.851,137.1978 405.397,140.4758 C404.44,147.3858 393.737,146.5988 392.199,140.4758 C388.697,126.5348 390.163,112.1468 385.883,98.2538 C382.088,85.9338 374.733,75.1618 364.076,67.7948 C319.117,36.7148 261.462,62.7418 211.926,60.3238 C199.819,59.7328 187.534,57.8618 176.114,53.6928 C170.225,51.5428 164.427,48.9208 159.088,45.6228 C154.196125,42.6031125 149.958156,38.8091086 145.429819,35.3177231 L143.432094,33.799409 C140.327715,31.4638296 135.043,27.8122918 131.911,30.9018 C130.548069,32.2466276 130.465608,35.2873529 130.490572,37.6093372 L130.506,38.6588 C130.648,48.5168 132.657,58.3568 128.968,67.8808 C127.285017,72.2249017 122.608161,74.9638313 118.159864,72.5037029 L117.93,72.3718 C108.52104,66.77434 96.1590387,78.0218587 103.386953,87.3303378 L103.612,87.6118 C107.678588,92.5539647 105.510505,101.257051 98.2321134,101.235307 L97.97,101.2308 C85.00199,100.82589 79.2484961,117.032695 90.4260925,124.114034 L90.77,124.3258 C99.845,129.7568 91.885,142.8138 82.584,138.3308 C83.372,138.7108 82.002,138.7058 81.218,139.7578 C80.465,140.7678 80.409,141.6418 80.588,142.9178 C81.131,146.7838 84.531,150.0418 87.285,152.4878 C93.541,158.0448 101.296,161.8818 109.287,164.2178 C141.297,173.5758 174.137,162.1288 205.325,155.2158 C237.84,148.0088 274.564,145.1058 302.92,165.5568 C303.257,165.7988 302.962,166.3398 302.589,166.1238 C282.239,154.3058 257.315,155.3548 235.07,160.1998 C205.9,166.5538 176.985,178.3808 147.11,181.4968 C155.497,196.3028 159.007,213.7898 156.767,230.7248 C155.224619,242.382467 150.585158,252.494452 145.105423,262.741733 L144.05969,264.694634 C139.173873,273.892684 135.389375,282.582092 135.329,293.2378 C135.27,303.8248 119.531,306.0568 116.863,295.7378 C110.806,272.3028 132.872,253.8438 141.875,234.5188 C149.57,217.9988 149.807,198.7378 143.58,181.8228 C136.554,182.3878 129.473,182.4468 122.321,181.8088 C116.178,181.2598 109.858,180.1528 103.698,178.4008 L101.233592,188.760624 C97.96876,202.55992 94.9438,216.35 94.027,230.6828 C93.352,241.2148 93.388,251.7988 94.415,262.3048 C95.303,271.3788 97.177,280.1298 99.084,288.9888 C100.72,291.1468 101.556,294.4498 101.096,297.0808 C111.716,300.1388 120.069,308.5188 123.121,319.6178 C123.307,320.2938 122.361,320.6738 122.007,320.0878 C114.766,308.0738 96.12,303.6528 84.325,311.5898 C73.061,319.1678 68.618,334.4678 74.994,346.5798 C78.3477436,352.94821 83.3201723,357.423566 89.7318297,360.505385 L91.0209807,361.110777 C94.3809643,362.700729 97.4652143,364.433443 99.626,367.6268 C102.429114,371.768771 102.523508,376.147211 102.258601,380.880303 L102.144053,382.798489 C101.96696,385.97116 101.927,389.2369 102.872,392.2888 L103.086722,392.967113 C103.335975,393.728615 103.598,394.399578 104.053,395.1268 C104.189,395.3428 105.465,396.5948 105.881,397.0478 L106.405,397.2058 L106.405,397.2058 L106.991,397.2298 L106.991,397.2298 C107.641087,397.239843 108.495418,396.95811 108.215117,397.153368 L108.291422,397.109687 C108.538047,396.956109 108.764922,396.793718 108.956047,396.649265 L109.319,396.3658 C110.168,395.1388 111.232,394.1248 112.537,393.3518 L113.784,392.7968 L113.784,392.7968 C117.023,389.3768 122.573,391.1738 124.895,394.5808 C126.566,397.0308 127.465,399.5218 127.539,401.9788 C127.8,401.5598 128.38,401.3308 128.749,401.7998 L130.950621,404.605233 C139.373939,415.367974 147.65232,426.19792 157.224,436.0088 C162.497,441.4148 168.169,446.4948 174.098,451.1738 C179.16,455.1688 188.762,459.0128 188.909,466.2898 C188.955,468.6518 187.278,470.3248 185.226,471.1268 C178.547514,473.735341 170.294704,464.861643 165.470936,460.543736 L165.077,460.1948 C159.173,455.0238 153.785,449.3478 148.813,443.2778 C139.156,431.4868 131.081,417.9158 127.522,402.9868 C127.355,405.5918 126.237,408.1448 124.061,410.5538 C121.164,413.7598 117.199,416.0078 112.964,416.9338 C103.369,419.0308 94.001,415.5778 88.292,407.5828 C83.4666667,400.823613 82.0459162,391.89857 82.6684988,383.73295 L82.7451982,382.753113 C82.8326886,381.443457 82.9441765,379.040447 83.283,378.0178 L80.262,376.3588 L80.262,376.3588 C76.558,374.3878 73.125,371.8038 70.044,368.9638 C57.661,357.5478 51.448,338.9948 57.109,322.7598 C60.65,312.6038 68.091,303.7668 77.619,299.1738 C76.0264737,295.493274 75.493903,291.122565 74.8929802,287.255451 L74.792,286.6158 C73.773,280.2718 72.92,273.8478 72.595,267.4278 C71.987,255.4378 72.726,243.3358 74.61,231.4848 C77.67,212.2358 84.005,191.8218 95.617,175.6738 C86.758,172.1558 78.604,167.0628 72.31,159.9908 C65.733,152.6008 61.54,142.0208 66.626,132.6358 C67.922,130.2438 69.611,128.2328 71.552,126.6358 C68.186,120.2798 67.097,112.7678 69.174,105.5878 C71.656,97.0038 78.395,90.3088 86.536,87.1828 C84.559,79.0498 86.175,70.3018 92.216,63.5238 C98.208,56.7998 107.513,54.3508 116.125,55.8878 C116.592,47.2378 113.869,38.0378 115.947,29.5068 Z M91.792,333.2066 C99.688,329.3426 109.046,329.9566 116.933,333.6186 L117.467393,333.872262 C126.078332,338.047828 137.48298,347.803763 134.746,358.1796 C133.144,364.2476 126.402,366.3196 121.174,363.7006 C116.807,361.5116 115.811,357.5986 113.62,353.6676 C112.071,350.8876 110.156,348.7146 107.907,346.4796 C103.166,341.7706 97.841,338.2726 91.792,335.4736 C90.92,335.0696 90.95,333.6196 91.792,333.2066 Z M290.7464,123.4773 C290.0064,123.1393 290.5434,121.9803 291.2884,122.1923 C311.1294,127.8583 329.6284,140.5763 340.6824,158.2293 C341.3564,159.3063 341.4594,161.0793 340.6824,162.1453 L340.324661,162.629103 C339.817658,163.290909 339.317463,163.779425 338.3644,163.9273 C336.5724,164.2053 335.0154,163.7383 333.9834,162.1453 C323.0934,145.3193 309.1414,131.8913 290.7464,123.4773 Z M423.5718,126.8091 C425.2528,123.9621 429.7098,124.5351 430.5968,127.7271 L430.725173,128.0049 C431.204254,129.093104 430.986319,129.315841 430.0928,128.7001 C432.3048,130.5221 433.3058,133.2361 432.6298,136.1541 C428.9778,151.9141 411.1268,163.1681 395.5648,161.6191 C394.2068,161.4841 394.0218,159.8151 395.2528,159.3171 C401.2398,156.8931 406.5538,152.9561 410.8268,148.1251 C414.9798,143.4291 416.7268,138.0561 418.9608,132.3851 C419.7988,130.2561 421.1028,128.7231 422.9398,127.8861 C423.1828,127.5501 423.3948,127.1921 423.5718,126.8091 Z M335.074609,116.681199 L335.1822,116.688 C343.1782,117.721 350.0952,121.667 355.7102,127.449 C361.1182,133.017 367.9432,142.205 367.3582,150.376 C366.9712,155.793 359.2692,158.89 356.3952,153.346 C354.6802,150.038 354.2912,146.412 353.0902,142.914 C351.9882,139.708 350.4662,136.664 348.6442,133.809 C344.8932,127.927 339.7352,122.944 334.4532,118.448 C333.835075,117.921875 334.265766,116.683988 335.074609,116.681199 L335.074609,116.681199 Z M129.9896,114.2807 C128.2166,112.5927 130.0606,109.7147 132.3156,110.2847 C144.2086,113.2957 155.9866,116.9577 168.3516,117.3217 C174.5276,117.5027 180.6686,117.0157 186.7866,116.2167 L189.884147,115.805366 C194.654984,115.182691 199.507779,114.693736 204.2236,115.6737 C207.3676,116.3267 207.9816,120.3767 206.0226,122.4897 C196.7716,132.4687 178.9276,131.5147 166.6586,129.8327 C153.3356,128.0047 139.8926,123.7147 129.9896,114.2807 Z M344.7547,83.1764 C343.9407,82.0474 345.3107,80.2654 346.6067,80.7664 C358.4257,85.3344 370.8127,97.2274 374.0687,109.6704 C374.9287,112.9574 370.7837,115.4394 368.3497,112.9994 C363.8137,108.4524 360.6117,103.0814 356.7777,97.9704 C352.9567,92.8754 348.4857,88.3504 344.7547,83.1764 Z M151.1019,88.7334 C150.1539,87.7864 151.1079,85.9004 152.4699,86.3824 C160.1649,89.1074 167.9179,91.4654 176.0019,92.7024 C184.2819,93.9684 192.6399,93.0064 200.9629,93.5194 C204.3299,93.7264 206.6229,98.9644 202.8799,100.5944 C186.2479,107.8354 163.6579,101.2694 151.1019,88.7334 Z M172.3486,72.4918 C171.0266,71.5138 171.7786,68.8298 173.5776,69.5788 C180.9056,72.6298 188.3166,73.3798 196.1806,73.0658 C199.0856,72.9488 199.6966,77.5138 196.8656,78.1298 C188.1726,80.0208 179.4526,77.7438 172.3486,72.4918 Z" id="ðŸ–-Ink" fill="#000000"/>
    </g>
</g><g transform="translate(320, 250)"><g>
    <!-- Generator: Sketch 62 (91390) - https://sketch.com -->
    <title>face/Smile</title>
    <desc>Created with Sketch.</desc>
    <g class="path1" stroke="none" stroke-width="2" fill-rule="evenodd">
        <path d="M146.586567,240.926554 C139.864291,238.184203 133.866322,233.609781 129.481228,227.766254 C127.956691,225.734803 127.561405,223.589624 127.881219,221.627583 C128.240828,219.421406 129.546036,217.4219 131.326046,216.080693 C133.111571,214.735331 135.345035,214.071832 137.504329,214.410065 C139.380629,214.703969 141.248396,215.731287 142.726594,217.861908 L143.035427,218.287981 C145.642441,221.814933 149.039621,224.708755 152.91047,226.573991 C156.641339,228.371775 160.813939,229.21087 165.131898,228.722919 C173.355732,227.793938 179.024012,223.346401 185.048774,217.30672 C185.795561,216.544195 186.542826,215.757766 187.293714,214.958678 C187.767915,214.234308 188.425986,213.768756 189.156624,213.524488 C189.967867,213.253272 190.885573,213.268617 191.726122,213.56195 C192.536835,213.844871 193.261572,214.380994 193.747527,215.094538 C194.209389,215.772704 194.47125,216.610486 194.386283,217.574143 C193.834826,223.833283 190.562474,229.419299 185.914235,233.805502 C180.751772,238.67694 173.908551,242.047034 167.465957,243.229031 C160.36811,244.531047 153.135593,243.598228 146.586567,240.926554 L146.586567,240.926554 Z M170.814304,144.367155 C178.365682,148.9572 189.871664,159.660291 181.748119,171.039573 C172.185929,181.073062 158.418535,169.568982 151.634201,164.366134 C145.343449,160.333898 138.275437,170.704507 144.112,175.412823 C193.135736,211.708059 213.030606,145.567387 174.633685,138.970386 C170.406047,138.243425 168.835891,142.947174 170.814304,144.367155 Z M82.9633,102.1464 C83.7976284,91.7901242 99.5703,89.4384 101.1393,99.6864 C102.5443,108.8664 100.8903,117.2994 96.7553,125.5644 C92.8043,133.4604 82.8737826,129.776544 82.1227826,122.586544 C81.1160984,112.948648 82.4443,108.588596 82.9633,102.1464 Z M203.027,97.5615 C205.226,94.6815 208.401,92.7155 212.205,93.8265 C224.09,97.2995 220.587,114.1725 216.413,122.3855 C214.145,126.8455 206.814,127.9765 203.501,124.0495 C198.101,117.6455 195.515,104.8565 202.38,98.5485 C202.566,98.2225 202.773,97.8935 203.027,97.5615 Z M96.5879,56.8305 L98.465271,56.501905 C104.27307,55.49746 111.4944,54.5323 115.6029,59.2015 C117.7819,61.6775 118.5319,66.2795 115.6029,68.6495 C110.4509,72.8195 104.7549,71.2035 98.5809,71.5565 C93.4929,71.8485 88.6029,72.6905 83.7019,74.0915 C72.9499,77.1645 64.1889,82.7745 55.0059,88.9345 C53.8009,89.7425 52.5709,88.2015 53.1459,87.0745 C58.4469,76.6915 68.7199,68.1625 79.0099,62.9635 C84.5019,60.1885 90.5119,57.8865 96.5879,56.8305 Z M192.192876,52.1793876 L193.629806,52.4734684 C209.267042,55.742077 229.583473,62.2713911 236.988459,77.6308459 C237.270623,79.8027272 236.97249,80.2682047 236.730054,80.5723213 L236.649336,80.6735209 C236.449568,80.9332186 236.290169,81.2912104 235.348782,81.5868073 C235.087547,81.5245653 234.823712,81.4586426 234.557082,81.3887687 C231.162766,80.499243 228.477205,79.2737961 225.877298,78.0022488 L223.058339,76.6134493 C219.787784,75.0098309 216.488352,73.4645766 212.991711,72.3238115 C205.52958,69.8898666 197.854137,68.1753043 190.059777,67.259767 C188.37041,67.0615005 186.743655,66.4913394 185.460262,65.5141761 C184.242065,64.5866523 183.311441,63.3024737 182.887128,61.5955207 C182.33722,59.3864508 182.495251,57.7140037 183.680513,55.7210991 C184.571756,54.2244705 185.846982,53.1871113 187.311265,52.5914244 C188.804038,51.9841473 190.503545,51.840982 192.192876,52.1793876 Z" fill="#000"/>
    </g>

</g></g>
          </g>
        </g>
      </svg>